<svg width="81" height="81" viewBox="0 0 81 81" fill="none" xmlns="http://www.w3.org/2000/svg">
<path d="M33.1438 0.804146C27.5157 0.803699 21.9854 2.27492 17.1015 5.07181C12.2176 7.86871 8.14997 11.8941 5.30219 16.7485C2.4544 21.6028 0.92547 27.1175 0.867101 32.7452C0.808732 38.373 2.22296 43.9182 4.96944 48.8306L1.0169 59.1688C0.688322 60.0282 0.604975 60.9619 0.776153 61.8659C0.947331 62.7699 1.3663 63.6086 1.98632 64.2883C2.60635 64.9681 3.40304 65.4622 4.28751 65.7156C5.17199 65.969 6.10948 65.9716 6.99537 65.7233L19.3446 62.2623C23.719 64.3292 28.502 65.3862 33.34 65.3551C38.178 65.3241 42.9471 64.2059 47.2946 62.0831C51.6421 59.9603 55.4568 56.8873 58.4565 53.0914C61.4561 49.2954 63.564 44.8737 64.6243 40.1532C65.6846 35.4328 65.6701 30.5343 64.5818 25.8202C63.4936 21.1061 61.3595 16.6969 58.3374 12.9189C55.3153 9.14079 51.4825 6.09044 47.1225 3.99346C42.7625 1.89647 37.9868 0.806495 33.1487 0.804146H33.1438ZM23.3915 69.0303C26.4184 72.555 30.1723 75.383 34.3953 77.3201C38.6183 79.2572 43.2105 80.2575 47.8566 80.2524C52.7873 80.2524 57.4698 79.1451 61.6607 77.1588L74.005 80.6198C74.8909 80.8682 75.8284 80.8655 76.7128 80.6121C77.5973 80.3588 78.394 79.8646 79.014 79.1849C79.6341 78.5051 80.053 77.6665 80.2242 76.7625C80.3954 75.8585 80.312 74.9247 79.9835 74.0653L76.0359 63.7271C78.7239 58.9131 80.1326 53.4902 80.1275 47.9765C80.1275 38.3434 75.9068 29.6935 69.2083 23.7796C69.9423 26.6395 70.334 29.5765 70.3752 32.5288C73.3942 36.9233 75.1619 42.2463 75.1619 47.9765C75.1619 53.1903 73.7021 58.0615 71.1647 62.2077L70.5291 63.2504L75.3457 75.838L61.1443 71.8656L60.2753 72.3026C56.5512 74.2093 52.3305 75.2868 47.8516 75.2868C42.2204 75.2955 36.7255 73.5552 32.1258 70.3064C29.1724 70.2293 26.2387 69.8009 23.3865 69.0303H23.3915Z" fill="black"/>
</svg>
