<svg width="26" height="26" viewBox="0 0 26 26" fill="none" xmlns="http://www.w3.org/2000/svg">
<path d="M22.9583 4.9189H20.1805V7.00224C20.1805 7.20287 20.141 7.40153 20.0642 7.58689C19.9874 7.77225 19.8749 7.94067 19.733 8.08254C19.5912 8.22441 19.4228 8.33694 19.2374 8.41372C19.052 8.4905 18.8534 8.53001 18.6527 8.53001C18.4521 8.53001 18.2534 8.4905 18.0681 8.41372C17.8827 8.33694 17.7143 8.22441 17.5724 8.08254C17.4306 7.94067 17.318 7.77225 17.2413 7.58689C17.1645 7.40153 17.125 7.20287 17.125 7.00224V4.9189H9.03468V7.00224C9.03468 7.40743 8.87372 7.79602 8.58721 8.08254C8.30069 8.36905 7.9121 8.53001 7.50691 8.53001C7.10171 8.53001 6.71312 8.36905 6.4266 8.08254C6.14009 7.79602 5.97913 7.40743 5.97913 7.00224V4.9189H3.20135C3.03609 4.91702 2.87213 4.9483 2.71917 5.01089C2.5662 5.07348 2.42735 5.16611 2.3108 5.2833C2.19426 5.40048 2.10241 5.53985 2.04067 5.69316C1.97892 5.84647 1.94855 6.0106 1.95135 6.17585V21.7175C1.94859 21.8799 1.97784 22.0411 2.03742 22.1922C2.09701 22.3432 2.18576 22.481 2.29862 22.5977C2.41147 22.7145 2.54621 22.8078 2.69515 22.8724C2.84408 22.9371 3.00429 22.9717 3.16663 22.9745H22.9583C23.1206 22.9717 23.2808 22.9371 23.4298 22.8724C23.5787 22.8078 23.7135 22.7145 23.8263 22.5977C23.9392 22.481 24.0279 22.3432 24.0875 22.1922C24.1471 22.0411 24.1763 21.8799 24.1736 21.7175V6.17585C24.1763 6.01351 24.1471 5.85223 24.0875 5.7012C24.0279 5.55017 23.9392 5.41236 23.8263 5.29563C23.7135 5.17891 23.5787 5.08556 23.4298 5.02092C23.2808 4.95628 23.1206 4.92162 22.9583 4.9189ZM7.50691 18.8078H6.11802V17.4189H7.50691V18.8078ZM7.50691 15.3356H6.11802V13.9467H7.50691V15.3356ZM7.50691 11.8633H6.11802V10.4745H7.50691V11.8633ZM11.6736 18.8078H10.2847V17.4189H11.6736V18.8078ZM11.6736 15.3356H10.2847V13.9467H11.6736V15.3356ZM11.6736 11.8633H10.2847V10.4745H11.6736V11.8633ZM15.8402 18.8078H14.4514V17.4189H15.8402V18.8078ZM15.8402 15.3356H14.4514V13.9467H15.8402V15.3356ZM15.8402 11.8633H14.4514V10.4745H15.8402V11.8633ZM20.0069 18.8078H18.618V17.4189H20.0069V18.8078ZM20.0069 15.3356H18.618V13.9467H20.0069V15.3356ZM20.0069 11.8633H18.618V10.4745H20.0069V11.8633Z" fill="#ECF0F3"/>
<path d="M7.50694 7.69667C7.69112 7.69667 7.86776 7.6235 7.99799 7.49327C8.12822 7.36304 8.20139 7.1864 8.20139 7.00222V2.83556C8.20139 2.65138 8.12822 2.47474 7.99799 2.34451C7.86776 2.21428 7.69112 2.14111 7.50694 2.14111C7.32277 2.14111 7.14613 2.21428 7.0159 2.34451C6.88566 2.47474 6.8125 2.65138 6.8125 2.83556V7.00222C6.8125 7.1864 6.88566 7.36304 7.0159 7.49327C7.14613 7.6235 7.32277 7.69667 7.50694 7.69667Z" fill="#ECF0F3"/>
<path d="M18.6183 7.69667C18.8025 7.69667 18.9791 7.6235 19.1093 7.49327C19.2396 7.36304 19.3127 7.1864 19.3127 7.00222V2.83556C19.3127 2.65138 19.2396 2.47474 19.1093 2.34451C18.9791 2.21428 18.8025 2.14111 18.6183 2.14111C18.4341 2.14111 18.2575 2.21428 18.1272 2.34451C17.997 2.47474 17.9238 2.65138 17.9238 2.83556V7.00222C17.9238 7.1864 17.997 7.36304 18.1272 7.49327C18.2575 7.6235 18.4341 7.69667 18.6183 7.69667Z" fill="#ECF0F3"/>
</svg>
