<svg width="25" height="26" viewBox="0 0 25 26" fill="none" xmlns="http://www.w3.org/2000/svg">
<path d="M22.3958 5.10167H19.618V7.18501C19.618 7.38564 19.5785 7.5843 19.5017 7.76966C19.4249 7.95502 19.3124 8.12344 19.1705 8.26531C19.0287 8.40718 18.8603 8.51971 18.6749 8.59649C18.4895 8.67327 18.2909 8.71278 18.0902 8.71278C17.8896 8.71278 17.6909 8.67327 17.5056 8.59649C17.3202 8.51971 17.1518 8.40718 17.0099 8.26531C16.8681 8.12344 16.7555 7.95502 16.6788 7.76966C16.602 7.5843 16.5625 7.38564 16.5625 7.18501V5.10167H8.47218V7.18501C8.47218 7.5902 8.31122 7.97879 8.02471 8.26531C7.73819 8.55182 7.3496 8.71278 6.94441 8.71278C6.53921 8.71278 6.15062 8.55182 5.8641 8.26531C5.57759 7.97879 5.41663 7.5902 5.41663 7.18501V5.10167H2.63885C2.47359 5.09979 2.30963 5.13107 2.15667 5.19366C2.0037 5.25625 1.86485 5.34888 1.7483 5.46607C1.63176 5.58325 1.53991 5.72262 1.47817 5.87593C1.41642 6.02924 1.38605 6.19337 1.38885 6.35862V21.9003C1.38609 22.0626 1.41534 22.2239 1.47492 22.3749C1.53451 22.526 1.62326 22.6638 1.73612 22.7805C1.84897 22.8972 1.98371 22.9906 2.13265 23.0552C2.28158 23.1199 2.44179 23.1545 2.60413 23.1572H22.3958C22.5581 23.1545 22.7183 23.1199 22.8673 23.0552C23.0162 22.9906 23.151 22.8972 23.2638 22.7805C23.3767 22.6638 23.4654 22.526 23.525 22.3749C23.5846 22.2239 23.6138 22.0626 23.6111 21.9003V6.35862C23.6138 6.19628 23.5846 6.035 23.525 5.88397C23.4654 5.73294 23.3767 5.59513 23.2638 5.4784C23.151 5.36168 23.0162 5.26833 22.8673 5.20369C22.7183 5.13905 22.5581 5.10439 22.3958 5.10167ZM6.94441 18.9906H5.55552V17.6017H6.94441V18.9906ZM6.94441 15.5183H5.55552V14.1295H6.94441V15.5183ZM6.94441 12.0461H5.55552V10.6572H6.94441V12.0461ZM11.1111 18.9906H9.72218V17.6017H11.1111V18.9906ZM11.1111 15.5183H9.72218V14.1295H11.1111V15.5183ZM11.1111 12.0461H9.72218V10.6572H11.1111V12.0461ZM15.2777 18.9906H13.8889V17.6017H15.2777V18.9906ZM15.2777 15.5183H13.8889V14.1295H15.2777V15.5183ZM15.2777 12.0461H13.8889V10.6572H15.2777V12.0461ZM19.4444 18.9906H18.0555V17.6017H19.4444V18.9906ZM19.4444 15.5183H18.0555V14.1295H19.4444V15.5183ZM19.4444 12.0461H18.0555V10.6572H19.4444V12.0461Z" fill="black"/>
<path d="M6.94444 7.87944C7.12862 7.87944 7.30526 7.80627 7.43549 7.67604C7.56572 7.54581 7.63889 7.36917 7.63889 7.18499V3.01833C7.63889 2.83415 7.56572 2.65751 7.43549 2.52728C7.30526 2.39705 7.12862 2.32388 6.94444 2.32388C6.76027 2.32388 6.58363 2.39705 6.4534 2.52728C6.32316 2.65751 6.25 2.83415 6.25 3.01833V7.18499C6.25 7.36917 6.32316 7.54581 6.4534 7.67604C6.58363 7.80627 6.76027 7.87944 6.94444 7.87944Z" fill="black"/>
<path d="M18.0558 7.87944C18.24 7.87944 18.4166 7.80627 18.5468 7.67604C18.6771 7.54581 18.7502 7.36917 18.7502 7.18499V3.01833C18.7502 2.83415 18.6771 2.65751 18.5468 2.52728C18.4166 2.39705 18.24 2.32388 18.0558 2.32388C17.8716 2.32388 17.695 2.39705 17.5647 2.52728C17.4345 2.65751 17.3613 2.83415 17.3613 3.01833V7.18499C17.3613 7.36917 17.4345 7.54581 17.5647 7.67604C17.695 7.80627 17.8716 7.87944 18.0558 7.87944Z" fill="black"/>
</svg>
