<svg width="83" height="78" viewBox="0 0 83 78" fill="none" xmlns="http://www.w3.org/2000/svg">
<path d="M39.0003 7.60001C32.8326 7.60037 26.8035 9.4287 21.6745 12.854C16.5455 16.2794 12.5467 21.148 10.1834 26.8449C7.82015 32.5417 7.19833 38.8112 8.39654 44.8614C9.59475 50.9115 12.5592 56.4707 16.9155 60.8368C17.5902 61.5128 17.9687 62.4291 17.9678 63.3842C17.9669 64.3393 17.5866 65.2549 16.9107 65.9296C16.2347 66.6043 15.3184 66.9829 14.3633 66.982C13.4082 66.9811 12.4926 66.6008 11.8179 65.9248C7.45982 61.5572 4.2184 56.2037 2.36806 50.3177C0.51771 44.4317 0.112929 38.1866 1.18799 32.111C2.26304 26.0354 4.78628 20.3083 8.54405 15.4146C12.3018 10.521 17.1835 6.60485 22.7756 3.99788C28.3678 1.39091 34.5058 0.169843 40.67 0.438072C46.8341 0.706301 52.8429 2.45593 58.1874 5.5388C63.532 8.62168 68.055 12.947 71.3735 18.1486C74.692 23.3502 76.7082 29.2748 77.2515 35.4208C75.2467 32.5191 72.248 30.4528 68.8227 29.6128C66.8563 23.2386 62.8996 17.662 57.5326 13.7005C52.1657 9.73904 45.6709 7.60106 39.0003 7.60001ZM61.2579 29.8048C59.1648 24.6463 55.3443 20.3754 50.4499 17.7229C45.5555 15.0703 39.8914 14.201 34.4268 15.2637C28.9622 16.3263 24.0367 19.2549 20.493 23.5482C16.9493 27.8416 15.0076 33.233 15.0003 38.8C15.0003 45.4096 17.6787 51.4048 21.9987 55.744C22.6734 56.4206 23.5892 56.8015 24.5448 56.8029C25.5003 56.8042 26.4172 56.4259 27.0939 55.7512C27.7705 55.0765 28.1514 54.1606 28.1527 53.2051C28.1541 52.2496 27.7758 51.3326 27.1011 50.656C25.3087 48.8564 23.9478 46.6738 23.1206 44.2723C22.2934 41.8709 22.0214 39.3132 22.3252 36.7915C22.629 34.2698 23.5006 31.8498 24.8745 29.7136C26.2483 27.5773 28.0887 25.7803 30.2572 24.4578C32.4256 23.1354 34.8657 22.3218 37.3939 22.0782C39.9221 21.8347 42.4726 22.1676 44.8536 23.0519C47.2346 23.9362 49.3842 25.3488 51.1405 27.1836C52.8969 29.0184 54.2143 31.2275 54.9939 33.6448C56.7147 31.8447 58.8729 30.5216 61.2579 29.8048ZM29.4003 38.8C29.4003 36.2539 30.4117 33.8121 32.212 32.0118C34.0124 30.2114 36.4542 29.2 39.0003 29.2C41.5463 29.2 43.9881 30.2114 45.7885 32.0118C47.5888 33.8121 48.6003 36.2539 48.6003 38.8C48.6003 41.3461 47.5888 43.7879 45.7885 45.5882C43.9881 47.3886 41.5463 48.4 39.0003 48.4C36.4542 48.4 34.0124 47.3886 32.212 45.5882C30.4117 43.7879 29.4003 41.3461 29.4003 38.8ZM75.0003 43.6C75.0003 46.1461 73.9888 48.5879 72.1885 50.3882C70.3881 52.1886 67.9463 53.2 65.4003 53.2C62.8542 53.2 60.4124 52.1886 58.612 50.3882C56.8117 48.5879 55.8003 46.1461 55.8003 43.6C55.8003 41.0539 56.8117 38.6121 58.612 36.8118C60.4124 35.0114 62.8542 34 65.4003 34C67.9463 34 70.3881 35.0114 72.1885 36.8118C73.9888 38.6121 75.0003 41.0539 75.0003 43.6ZM82.2003 65.2C82.2003 71.176 77.4003 77.2 65.4003 77.2C53.4003 77.2 48.6003 71.2 48.6003 65.2C48.6003 63.2905 49.3588 61.4591 50.7091 60.1088C52.0594 58.7586 53.8907 58 55.8003 58H75.0003C76.9098 58 78.7412 58.7586 80.0914 60.1088C81.4417 61.4591 82.2003 63.2905 82.2003 65.2Z" fill="black"/>
</svg>
