<svg width="78" height="78" viewBox="0 0 78 78" fill="none" xmlns="http://www.w3.org/2000/svg">
<path d="M56.004 46.8C56.316 44.226 56.55 41.652 56.55 39C56.55 36.348 56.316 33.774 56.004 31.2H69.186C69.81 33.696 70.2 36.309 70.2 39C70.2 41.691 69.81 44.304 69.186 46.8H56.004ZM49.101 68.484C51.441 64.155 53.235 59.475 54.483 54.6H65.988C62.2096 61.1063 56.215 66.0348 49.101 68.484ZM48.126 46.8H29.874C29.484 44.226 29.25 41.652 29.25 39C29.25 36.348 29.484 33.735 29.874 31.2H48.126C48.477 33.735 48.75 36.348 48.75 39C48.75 41.652 48.477 44.226 48.126 46.8ZM39 70.044C35.763 65.364 33.15 60.177 31.551 54.6H46.449C44.85 60.177 42.237 65.364 39 70.044ZM23.4 23.4H12.012C15.7515 16.8761 21.7417 11.9398 28.86 9.516C26.52 13.845 24.765 18.525 23.4 23.4ZM12.012 54.6H23.4C24.765 59.475 26.52 64.155 28.86 68.484C21.7566 66.0335 15.7749 61.1041 12.012 54.6ZM8.814 46.8C8.19 44.304 7.8 41.691 7.8 39C7.8 36.309 8.19 33.696 8.814 31.2H21.996C21.684 33.774 21.45 36.348 21.45 39C21.45 41.652 21.684 44.226 21.996 46.8H8.814ZM39 7.917C42.237 12.597 44.85 17.823 46.449 23.4H31.551C33.15 17.823 35.763 12.597 39 7.917ZM65.988 23.4H54.483C53.2624 18.5697 51.4549 13.907 49.101 9.516C56.277 11.973 62.244 16.926 65.988 23.4ZM39 0C17.433 0 0 17.55 0 39C0 49.3434 4.10892 59.2632 11.4228 66.5772C15.0443 70.1986 19.3436 73.0714 24.0753 75.0313C28.807 76.9912 33.8784 78 39 78C49.3434 78 59.2632 73.8911 66.5772 66.5772C73.8911 59.2632 78 49.3434 78 39C78 33.8784 76.9912 28.807 75.0313 24.0753C73.0714 19.3436 70.1986 15.0443 66.5772 11.4228C62.9557 7.80135 58.6564 4.92863 53.9247 2.9687C49.193 1.00877 44.1216 0 39 0Z" fill="black"/>
</svg>
