<svg width="25" height="25" viewBox="0 0 25 25" fill="none" xmlns="http://www.w3.org/2000/svg">
<g clip-path="url(#clip0_227_1928)">
<path d="M21.1631 4.67918C19.5693 3.96043 17.861 3.42918 16.0745 3.1271C16.0586 3.12404 16.0421 3.12601 16.0274 3.13273C16.0127 3.13945 16.0004 3.15058 15.9922 3.1646C15.7735 3.54897 15.5297 4.05001 15.3589 4.44585C13.4642 4.16276 11.538 4.16276 9.64328 4.44585C9.453 4.00716 9.23843 3.57941 9.00057 3.1646C8.9925 3.15041 8.98031 3.13902 8.9656 3.13195C8.9509 3.12488 8.93439 3.12246 8.91828 3.12501C7.13286 3.4271 5.42452 3.95835 3.82973 4.67814C3.81601 4.68389 3.80438 4.69371 3.7964 4.70626C0.554732 9.47189 -0.333809 14.1198 0.102649 18.7094C0.103864 18.7206 0.107353 18.7315 0.112904 18.7414C0.118456 18.7512 0.125953 18.7598 0.134941 18.7667C2.02702 20.1442 4.13738 21.1936 6.37765 21.8708C6.39327 21.8757 6.40997 21.8756 6.42558 21.8708C6.44119 21.866 6.45498 21.8566 6.46515 21.8438C6.94723 21.199 7.37442 20.5151 7.74223 19.799C7.74734 19.7892 7.75028 19.7784 7.75086 19.7674C7.75144 19.7564 7.74964 19.7453 7.7456 19.7351C7.74155 19.7248 7.73534 19.7155 7.72739 19.7078C7.71944 19.7002 7.70994 19.6943 7.69952 19.6906C7.02661 19.4372 6.37461 19.1314 5.74952 18.7761C5.73829 18.7696 5.72883 18.7605 5.72198 18.7496C5.71513 18.7386 5.71111 18.7261 5.71029 18.7132C5.70946 18.7003 5.71185 18.6874 5.71725 18.6756C5.72264 18.6639 5.73087 18.6536 5.74119 18.6458C5.87244 18.549 6.00369 18.4479 6.12869 18.3469C6.13994 18.3378 6.1535 18.332 6.16784 18.3302C6.18219 18.3283 6.19676 18.3305 6.20994 18.3365C10.3006 20.174 14.7308 20.174 18.7735 18.3365C18.7867 18.3302 18.8014 18.3277 18.816 18.3294C18.8305 18.331 18.8443 18.3367 18.8558 18.3458C18.9808 18.4479 19.111 18.549 19.2433 18.6458C19.2537 18.6535 19.2621 18.6636 19.2676 18.6752C19.2732 18.6869 19.2758 18.6997 19.2752 18.7126C19.2745 18.7255 19.2707 18.7381 19.2641 18.7491C19.2574 18.7602 19.2481 18.7695 19.237 18.7761C18.6141 19.1344 17.9662 19.4375 17.286 19.6896C17.2755 19.6934 17.266 19.6994 17.2581 19.7071C17.2501 19.7149 17.2439 19.7243 17.2399 19.7346C17.2358 19.745 17.234 19.7561 17.2346 19.7672C17.2352 19.7783 17.2382 19.7891 17.2433 19.799C17.6183 20.5146 18.0474 21.1958 18.5193 21.8427C18.5291 21.856 18.5428 21.8659 18.5585 21.8711C18.5741 21.8764 18.591 21.8766 18.6068 21.8719C20.8509 21.1965 22.9647 20.1467 24.8589 18.7667C24.8681 18.7602 24.8759 18.7519 24.8816 18.7422C24.8874 18.7325 24.891 18.7216 24.8922 18.7104C25.4131 13.4042 24.0193 8.79376 21.1954 4.70835C21.1884 4.69507 21.177 4.68472 21.1631 4.67918ZM8.35369 15.9146C7.12244 15.9146 6.10682 14.8011 6.10682 13.4354C6.10682 12.0688 7.10265 10.9563 8.35369 10.9563C9.61411 10.9563 10.6204 12.0781 10.6006 13.4354C10.6006 14.8021 9.60473 15.9146 8.35369 15.9146V15.9146ZM16.661 15.9146C15.4287 15.9146 14.4141 14.8011 14.4141 13.4354C14.4141 12.0688 15.4089 10.9563 16.661 10.9563C17.9214 10.9563 18.9277 12.0781 18.9079 13.4354C18.9079 14.8021 17.9224 15.9146 16.661 15.9146V15.9146Z" fill="white"/>
</g>
<defs>
<clipPath id="clip0_227_1928">
<rect width="25" height="25" fill="white"/>
</clipPath>
</defs>
</svg>
