<svg width="24" height="26" viewBox="0 0 24 26" fill="none" xmlns="http://www.w3.org/2000/svg">
<path d="M14.75 16.56C15.716 16.56 16.5 17.3767 16.5 18.3829L16.499 19.385C16.616 21.6662 14.988 22.8194 12.067 22.8194C9.157 22.8194 7.5 21.684 7.5 19.4246V18.3829C7.5 17.3767 8.284 16.56 9.25 16.56H14.75ZM3.75 11.3517H8.126C7.95152 12.0589 7.95823 12.8015 8.14546 13.5053C8.3327 14.209 8.6939 14.8493 9.193 15.3621L9.355 15.5194L9.25 15.5183C8.64983 15.5181 8.06606 15.7224 7.58778 16.1001C7.10949 16.4777 6.76294 17.008 6.601 17.61L6.567 17.611C3.657 17.611 2 16.4756 2 14.2162V13.1746C2 12.1683 2.784 11.3517 3.75 11.3517ZM20.25 11.3517C21.216 11.3517 22 12.1683 22 13.1746L21.999 14.1767C22.116 16.4579 20.488 17.611 17.567 17.611L17.398 17.609C17.2443 17.0416 16.9265 16.5372 16.488 16.1645C16.0495 15.7918 15.5115 15.5687 14.947 15.5256L14.75 15.5183L14.645 15.5194C15.2001 15.0115 15.6089 14.353 15.8259 13.6173C16.0429 12.8817 16.0596 12.0977 15.874 11.3527L20.25 11.3517ZM12 9.26833C12.394 9.26833 12.7841 9.34916 13.1481 9.50621C13.512 9.66325 13.8427 9.89344 14.1213 10.1836C14.3999 10.4738 14.6209 10.8183 14.7716 11.1974C14.9224 11.5766 15 11.983 15 12.3933C15 12.8037 14.9224 13.2101 14.7716 13.5892C14.6209 13.9684 14.3999 14.3129 14.1213 14.603C13.8427 14.8932 13.512 15.1234 13.1481 15.2805C12.7841 15.4375 12.394 15.5183 12 15.5183C11.2044 15.5183 10.4413 15.1891 9.87868 14.603C9.31607 14.017 9 13.2221 9 12.3933C9 11.5645 9.31607 10.7697 9.87868 10.1836C10.4413 9.59757 11.2044 9.26833 12 9.26833ZM6.5 4.06C7.29565 4.06 8.05871 4.38924 8.62132 4.97529C9.18393 5.56134 9.5 6.3562 9.5 7.185C9.5 8.0138 9.18393 8.80866 8.62132 9.39471C8.05871 9.98076 7.29565 10.31 6.5 10.31C5.70435 10.31 4.94129 9.98076 4.37868 9.39471C3.81607 8.80866 3.5 8.0138 3.5 7.185C3.5 6.3562 3.81607 5.56134 4.37868 4.97529C4.94129 4.38924 5.70435 4.06 6.5 4.06ZM17.5 4.06C18.2956 4.06 19.0587 4.38924 19.6213 4.97529C20.1839 5.56134 20.5 6.3562 20.5 7.185C20.5 8.0138 20.1839 8.80866 19.6213 9.39471C19.0587 9.98076 18.2956 10.31 17.5 10.31C16.7044 10.31 15.9413 9.98076 15.3787 9.39471C14.8161 8.80866 14.5 8.0138 14.5 7.185C14.5 6.3562 14.8161 5.56134 15.3787 4.97529C15.9413 4.38924 16.7044 4.06 17.5 4.06Z" fill="black"/>
</svg>
