<svg width="25" height="26" viewBox="0 0 25 26" fill="none" xmlns="http://www.w3.org/2000/svg">
<path d="M15.3125 16.3772C16.2785 16.3772 17.0625 17.1939 17.0625 18.2001L17.0615 19.2022C17.1785 21.4834 15.5505 22.6366 12.6295 22.6366C9.7195 22.6366 8.0625 21.5012 8.0625 19.2418V18.2001C8.0625 17.1939 8.8465 16.3772 9.8125 16.3772H15.3125ZM4.3125 11.1689H8.6885C8.51402 11.8761 8.52073 12.6187 8.70796 13.3225C8.8952 14.0262 9.2564 14.6665 9.7555 15.1793L9.9175 15.3366L9.8125 15.3355C9.21233 15.3353 8.62856 15.5396 8.15028 15.9173C7.67199 16.2949 7.32544 16.8252 7.1635 17.4272L7.1295 17.4282C4.2195 17.4282 2.5625 16.2928 2.5625 14.0334V12.9918C2.5625 11.9855 3.3465 11.1689 4.3125 11.1689ZM20.8125 11.1689C21.7785 11.1689 22.5625 11.9855 22.5625 12.9918L22.5615 13.9939C22.6785 16.2751 21.0505 17.4282 18.1295 17.4282L17.9605 17.4262C17.8068 16.8588 17.489 16.3544 17.0505 15.9817C16.612 15.609 16.074 15.3859 15.5095 15.3428L15.3125 15.3355L15.2075 15.3366C15.7626 14.8287 16.1714 14.1702 16.3884 13.4345C16.6054 12.6989 16.6221 11.9149 16.4365 11.1699L20.8125 11.1689ZM12.5625 9.08553C12.9565 9.08553 13.3466 9.16636 13.7106 9.32341C14.0745 9.48045 14.4052 9.71064 14.6838 10.0008C14.9624 10.291 15.1834 10.6355 15.3341 11.0146C15.4849 11.3938 15.5625 11.8002 15.5625 12.2105C15.5625 12.6209 15.4849 13.0273 15.3341 13.4064C15.1834 13.7856 14.9624 14.1301 14.6838 14.4202C14.4052 14.7104 14.0745 14.9406 13.7106 15.0977C13.3466 15.2547 12.9565 15.3355 12.5625 15.3355C11.7669 15.3355 11.0038 15.0063 10.4412 14.4202C9.87857 13.8342 9.5625 13.0393 9.5625 12.2105C9.5625 11.3817 9.87857 10.5869 10.4412 10.0008C11.0038 9.41477 11.7669 9.08553 12.5625 9.08553ZM7.0625 3.8772C7.85815 3.8772 8.62121 4.20644 9.18382 4.79249C9.74643 5.37854 10.0625 6.1734 10.0625 7.0022C10.0625 7.831 9.74643 8.62586 9.18382 9.21191C8.62121 9.79796 7.85815 10.1272 7.0625 10.1272C6.26685 10.1272 5.50379 9.79796 4.94118 9.21191C4.37857 8.62586 4.0625 7.831 4.0625 7.0022C4.0625 6.1734 4.37857 5.37854 4.94118 4.79249C5.50379 4.20644 6.26685 3.8772 7.0625 3.8772ZM18.0625 3.8772C18.8581 3.8772 19.6212 4.20644 20.1838 4.79249C20.7464 5.37854 21.0625 6.1734 21.0625 7.0022C21.0625 7.831 20.7464 8.62586 20.1838 9.21191C19.6212 9.79796 18.8581 10.1272 18.0625 10.1272C17.2669 10.1272 16.5038 9.79796 15.9412 9.21191C15.3786 8.62586 15.0625 7.831 15.0625 7.0022C15.0625 6.1734 15.3786 5.37854 15.9412 4.79249C16.5038 4.20644 17.2669 3.8772 18.0625 3.8772Z" fill="#ECF0F3"/>
</svg>
