<svg width="28" height="28" viewBox="0 0 28 28" fill="none" xmlns="http://www.w3.org/2000/svg">
<path d="M24.9405 19.0854V22.4604C24.9418 22.7737 24.8776 23.0838 24.7521 23.3709C24.6266 23.658 24.4425 23.9157 24.2116 24.1275C23.9808 24.3393 23.7082 24.5006 23.4114 24.6009C23.1146 24.7013 22.8001 24.7386 22.488 24.7104C19.0262 24.3342 15.7009 23.1513 12.7793 21.2567C10.0611 19.5294 7.75654 17.2248 6.02929 14.5067C4.12801 11.5718 2.94481 8.23027 2.57554 4.7529C2.54742 4.4418 2.5844 4.12826 2.6841 3.83223C2.7838 3.5362 2.94405 3.26418 3.15465 3.03348C3.36524 2.80277 3.62157 2.61845 3.9073 2.49224C4.19304 2.36603 4.50192 2.3007 4.81429 2.3004H8.18929C8.73526 2.29503 9.26455 2.48837 9.67852 2.84438C10.0925 3.20039 10.3629 3.69478 10.4393 4.2354C10.5817 5.31548 10.8459 6.37597 11.2268 7.39665C11.3781 7.79932 11.4109 8.23693 11.3212 8.65764C11.2315 9.07835 11.023 9.46453 10.7205 9.7704L9.29179 11.1992C10.8933 14.0156 13.2253 16.3477 16.0418 17.9492L17.4705 16.5204C17.7764 16.2179 18.1626 16.0095 18.5833 15.9198C19.004 15.83 19.4416 15.8628 19.8443 16.0142C20.865 16.395 21.9255 16.6592 23.0055 16.8017C23.552 16.8787 24.0511 17.154 24.4079 17.5751C24.7647 17.9962 24.9542 18.5337 24.9405 19.0854Z" stroke="#ECF0F3" stroke-width="2" stroke-linecap="round" stroke-linejoin="round"/>
</svg>
