<svg width="50" height="50" viewBox="0 0 50 50" fill="none" xmlns="http://www.w3.org/2000/svg">
<path fill-rule="evenodd" clip-rule="evenodd" d="M25 50C38.8071 50 50 38.8071 50 25C50 11.1929 38.8071 0 25 0C11.1929 0 0 11.1929 0 25C0 38.8071 11.1929 50 25 50ZM29.0352 13.8998C28.4472 14.6028 28.125 15.4901 28.1251 16.4066C28.1247 16.8052 28.1853 17.2014 28.3048 17.5816L17.8081 22.4565C17.2885 21.851 16.5959 21.419 15.8234 21.2189C15.051 21.0188 14.2358 21.06 13.4875 21.337C12.7392 21.6141 12.0936 22.1137 11.6378 22.7686C11.1819 23.4235 10.9375 24.2023 10.9375 25.0002C10.9375 25.7982 11.1819 26.577 11.6378 27.2319C12.0936 27.8868 12.7392 28.3864 13.4875 28.6634C14.2358 28.9405 15.051 28.9817 15.8234 28.7816C16.5959 28.5814 17.2885 28.1495 17.8081 27.5439L28.3048 32.4189C28.0129 33.3416 28.074 34.3399 28.4762 35.2202C28.8784 36.1005 29.5931 36.8001 30.4818 37.1835C31.3704 37.5669 32.3698 37.6067 33.2861 37.2953C34.2025 36.9838 34.9706 36.3433 35.4416 35.4978C35.9126 34.6523 36.0529 33.6621 35.8354 32.719C35.6179 31.776 35.0581 30.9472 34.2644 30.3934C33.4707 29.8396 32.4996 29.6001 31.5394 29.7215C30.5793 29.8428 29.6983 30.3163 29.0673 31.0501L18.5706 26.1752C18.8119 25.4105 18.8119 24.59 18.5706 23.8252L29.0673 18.9503C29.6642 19.6458 30.4867 20.1092 31.3908 20.2595C32.2949 20.4097 33.223 20.2373 34.0128 19.7724C34.8027 19.3075 35.4039 18.5797 35.7112 17.7162C36.0186 16.8528 36.0126 15.9088 35.6943 15.0494C35.376 14.19 34.7656 13.4698 33.9699 13.015C33.1743 12.5601 32.244 12.3995 31.3419 12.5613C30.4398 12.723 29.6233 13.1968 29.0352 13.8998Z" fill="#ECF0F3"/>
</svg>
